<svg width="12" height="11" viewBox="0 0 12 11" fill="none" xmlns="http://www.w3.org/2000/svg">
<path d="M5.54127 1.05689C5.71535 0.65545 6.28465 0.65545 6.45873 1.05689L7.5119 3.4856C7.58435 3.65268 7.74191 3.76715 7.9232 3.78443L10.5585 4.03554C10.9941 4.07705 11.17 4.61849 10.842 4.9081L8.85761 6.66024C8.7211 6.78077 8.66091 6.96599 8.70051 7.14375L9.27603 9.72766C9.37116 10.1548 8.91059 10.4894 8.5338 10.2669L6.2542 8.9211C6.09738 8.82851 5.90262 8.82851 5.7458 8.9211L3.4662 10.2669C3.08941 10.4894 2.62884 10.1548 2.72397 9.72766L3.29949 7.14375C3.33909 6.966 3.2789 6.78077 3.14239 6.66024L1.158 4.9081C0.829998 4.61849 1.00592 4.07705 1.44151 4.03554L4.0768 3.78443C4.25809 3.76716 4.41565 3.65268 4.4881 3.4856L5.54127 1.05689Z" fill="#FF9901"/>
</svg>
